<?xml version="1.0" encoding="utf-8"?>
<!-- Generator: Adobe Illustrator 28.2.0, SVG Export Plug-In . SVG Version: 6.00 Build 0)  -->
<svg version="1.1"
	 id="Layer_1" xmlns:dc="http://purl.org/dc/elements/1.1/" xmlns:rdf="http://www.w3.org/1999/02/22-rdf-syntax-ns#" xmlns:cc="http://creativecommons.org/ns#"
	 xmlns="http://www.w3.org/2000/svg" xmlns:xlink="http://www.w3.org/1999/xlink" x="0px" y="0px" viewBox="0 0 1296 256"
	 style="enable-background:new 0 0 1296 256;" xml:space="preserve">
<style type="text/css">
	.st0{fill-rule:evenodd;clip-rule:evenodd;fill:#F6C562;}
	.st1{fill:#F6C562;}
</style>
<g>
	<g>
		<path class="st0" d="M21.4,60.3c0.9-3.7,4.3-6.2,7.9-6.2c0.7,0,1.3,0.1,2,0.2l84.2,20.1l0,0l0,0c0.5,0.1,1,0.2,1.5,0.4
			c9.2,2.3,19,2.3,28.2,0c0.5-0.1,1-0.3,1.5-0.4l0,0l0,0l84.2-20.1c0.7-0.2,1.3-0.2,2-0.2c3.7-0.1,7,2.4,7.9,6.2
			c1,4.3-1.6,8.6-6,9.7l-84.3,20.1c-0.3,0.1-0.7,0.2-1,0.3c-6.1,1.9-10.3,7.5-10.3,14v10.3c0,4.9,1.4,9.6,4,13.7l32,49.5
			c3.8,5.8,12,6.6,16.8,1.5l35.1-37.7c3-3.2,8.1-3.4,11.4-0.4c3.3,3,3.4,8.1,0.4,11.4l-35.1,37.7c-11.9,12.8-32.6,10.9-42.1-3.7
			l-29.1-45c-0.7-1.1-2.3-1.1-3,0l-29.1,45c-9.5,14.6-30.2,16.4-42.1,3.7l-35.1-37.7c-3-3.2-2.8-8.3,0.4-11.4
			c3.3-3,8.3-2.8,11.4,0.4l35.1,37.7c4.7,5.1,13,4.4,16.8-1.5l32-49.5c2.6-4.1,4-8.8,4-13.7v-10.3c0-6.4-4.2-12.1-10.3-14
			c-0.3-0.1-0.7-0.2-1-0.3L27.3,70C23,69,20.3,64.6,21.4,60.3z"/>
		<path d="M199.8,85.1l-4,11.2l5.4,5.5H60.8l4.6-4.7l-4-11.2l-15.7,15.9l0,0h0v28.2c0,12.3,9.9,22.3,22,22.3h33.5
			c12.1,0,22-10,22-22.3v-17.4h15.4v17.4c0,12.3,9.9,22.3,22,22.3h33.5c12.1,0,22-10,22-22.3v-28.2h0l0,0L199.8,85.1L199.8,85.1z"/>
	</g>
	<polygon class="st1" points="360.2,102.7 387.4,170.3 397.2,170.3 397.1,170.2 397.3,170.3 417.9,120.2 439.8,170.3 449.7,170.3 
		475.9,102.7 463,102.7 444.7,149 424.9,102.7 411.1,102.7 392.3,149 373.1,102.7 	"/>
	<path class="st1" d="M326.7,102.7h-48.8v13.5h46.4c6.3,0,9.4,3.6,9.4,10.8v0.1h-45c-11.9,0-17.8,5.8-17.8,17.3v9.4
		c0,11.3,6.4,17,19.3,17h57.6v-48.1C347.6,109.3,340.6,102.7,326.7,102.7L326.7,102.7z M294.2,157.1c-6.2,0-9.3-2.8-9.3-8.5h-0.1
		c0-5.3,3.4-8,10.1-8h38.8l0,16.5L294.2,157.1L294.2,157.1z"/>
	<path class="st1" d="M539.7,102.7h-35c-14,0-21,6.8-21,20.4v27.6c0.1,13.2,7.1,19.9,21,20h52.8v-13.6h-50.4c-6.3,0-9.4-3.3-9.4-10
		v-6.2h63v-21.3C560.5,108.4,553.6,102.8,539.7,102.7L539.7,102.7z M546.6,127h-48.9v-1c0-6.5,3.5-9.7,10.6-9.7h31.3
		c4.6,0,6.9,1.7,7,5.1L546.6,127z"/>
	<path class="st1" d="M633.1,129.6h-34.7c-4.7,0-7-2.3-7-6.9c0-4.4,2.3-6.6,6.9-6.7h55.4v-13.4h-55.3c-14,0-21,5.7-21,17.1v6.9
		c0,11.1,7.1,16.7,21,16.7H631c5.9,0.1,8.9,2.2,9,6.3c-0.2,5-3.2,7.5-9.1,7.5h-53.4v13.5h55.2c14,0,21.1-5.7,21.4-17v-6.7
		C654.1,135.4,647.1,129.6,633.1,129.6L633.1,129.6z"/>
	<path class="st1" d="M723.2,102.7h-34.9c-13.9,0-21,6.8-21.1,20.4v30.3c0,11.5,7,17.3,21,17.4h35c14.1-0.1,21.2-5.8,21.2-16.9
		v-30.8C744.2,109.5,737.2,102.7,723.2,102.7L723.2,102.7z M730.2,152.1c0,3.4-3.2,5.1-9.4,5.1h-27.6c-8.1,0-12.2-2.4-12.1-6.9
		v-25.3c0.1-5.7,3.2-8.6,9.3-8.7h30.9c5.9,0,8.9,2.9,8.9,8.7L730.2,152.1L730.2,152.1z"/>
	<path class="st1" d="M844,102.7h-83.6l0.1,68h14v-54.5h22.2c5.9,0,8.8,2.9,8.9,8.6v45.8h14.4v-54.3h21.8c6.2,0,9.3,3,9.3,8.9
		l0.1,45.5h14.1v-47.6C865.1,109.6,858,102.8,844,102.7L844,102.7z"/>
	<rect x="975.7" y="130" class="st1" width="55.9" height="13.6"/>
	<path class="st1" d="M936.1,102.7h-35c-14,0-21,6.8-21,20.4v27.6c0.1,13.2,7.1,19.9,21,20h52.8v-13.6h-50.4c-6.3,0-9.4-3.3-9.4-10
		v-6.2h63v-21.3C956.9,108.4,949.9,102.8,936.1,102.7L936.1,102.7z M943,127h-48.9v-1c0-6.5,3.5-9.7,10.6-9.7h31.3
		c4.6,0,6.9,1.7,7,5.1L943,127z"/>
	<path class="st1" d="M1162.5,102.7h-34.9c-13.9,0-21,6.8-21.1,20.4v30.3c0,11.5,7,17.3,21,17.4h35c14.1-0.1,21.2-5.8,21.2-16.9
		v-30.8C1183.5,109.5,1176.5,102.7,1162.5,102.7L1162.5,102.7z M1169.5,152.1c0,3.4-3.2,5.1-9.4,5.1h-27.6c-8.1,0-12.2-2.4-12.1-6.9
		v-25.3c0.1-5.7,3.2-8.6,9.3-8.7h30.9c5.9,0,8.9,2.9,8.9,8.7L1169.5,152.1L1169.5,152.1z"/>
	<rect x="1197.2" y="103" class="st1" width="17.1" height="67.9"/>
	<g>
		<rect x="1063.1" y="103.3" class="st1" width="17.1" height="67.9"/>
		<rect x="1044.9" y="103.4" class="st1" width="52.9" height="12.9"/>
	</g>
	<g>
		<rect x="1241.3" y="102.8" class="st1" width="17.1" height="67.9"/>
		<rect x="1223.1" y="102.8" class="st1" width="52.9" height="12.9"/>
	</g>
</g>
</svg>
