<?xml version="1.0" encoding="utf-8"?>
<!-- Generator: Adobe Illustrator 28.2.0, SVG Export Plug-In . SVG Version: 6.00 Build 0)  -->
<svg version="1.1"
	 id="Layer_1" xmlns:dc="http://purl.org/dc/elements/1.1/" xmlns:rdf="http://www.w3.org/1999/02/22-rdf-syntax-ns#" xmlns:cc="http://creativecommons.org/ns#"
	 xmlns="http://www.w3.org/2000/svg" xmlns:xlink="http://www.w3.org/1999/xlink" x="0px" y="0px" viewBox="0 0 1296 256"
	 style="enable-background:new 0 0 1296 256;" xml:space="preserve">
<style type="text/css">
	.st0{fill-rule:evenodd;clip-rule:evenodd;fill:#F6C562;}
	.st1{stroke:#FFFFFF;stroke-width:3;stroke-miterlimit:10;}
	.st2{fill:#F6C562;}
</style>
<path class="st0" d="M21.4,60.3c0.9-3.7,4.3-6.2,7.9-6.2c0.7,0,1.3,0.1,2,0.2l84.2,20.1l0,0l0,0c0.5,0.1,1,0.2,1.5,0.4
	c9.2,2.3,19,2.3,28.2,0c0.5-0.1,1-0.3,1.5-0.4l0,0l0,0l84.2-20.1c0.7-0.2,1.3-0.2,2-0.2c3.7-0.1,7,2.4,7.9,6.2c1,4.3-1.6,8.6-6,9.7
	l-84.3,20.1c-0.3,0.1-0.7,0.2-1,0.3c-6.1,1.9-10.3,7.5-10.3,14v10.3c0,4.9,1.4,9.6,4,13.7l32,49.5c3.8,5.8,12,6.6,16.8,1.5
	l35.1-37.7c3-3.2,8.1-3.4,11.4-0.4c3.3,3,3.4,8.1,0.4,11.4l-35.1,37.7c-11.9,12.8-32.6,10.9-42.1-3.7l-29.1-45c-0.7-1.1-2.3-1.1-3,0
	l-29.1,45c-9.5,14.6-30.2,16.4-42.1,3.7l-35.1-37.7c-3-3.2-2.8-8.3,0.4-11.4c3.3-3,8.3-2.8,11.4,0.4l35.1,37.7
	c4.7,5.1,13,4.4,16.8-1.5l32-49.5c2.6-4.1,4-8.8,4-13.7v-10.3c0-6.4-4.2-12.1-10.3-14c-0.3-0.1-0.7-0.2-1-0.3L27.3,70
	C23,69,20.3,64.6,21.4,60.3z"/>
<path class="st1" d="M199.8,85.1l-4,11.2l5.4,5.5H60.8l4.6-4.7l-4-11.2l-15.7,15.9l0,0h0v28.2c0,12.3,9.9,22.3,22,22.3h33.5
	c12.1,0,22-10,22-22.3v-17.4h15.4v17.4c0,12.3,9.9,22.3,22,22.3h33.5c12.1,0,22-10,22-22.3v-28.2h0l0,0L199.8,85.1L199.8,85.1z"/>
<g>
	<polygon class="st2" points="357.6,103.4 384.1,167.7 393.6,167.7 393.5,167.7 393.7,167.7 413.7,120.1 435,167.7 444.5,167.7 
		470.1,103.4 457.5,103.4 439.8,147.5 420.5,103.4 407.1,103.4 388.9,147.5 370.2,103.4 	"/>
	<path class="st2" d="M325.1,103.4h-47.4v12.9h45.1c6.1,0,9.1,3.4,9.1,10.2v0.1h-43.7c-11.5,0-17.3,5.5-17.3,16.5v8.9
		c0,10.8,6.2,16.2,18.7,16.2h55.9v-45.8C345.5,109.7,338.6,103.4,325.1,103.4L325.1,103.4z M293.5,155.2c-6,0-9.1-2.7-9.1-8.1h-0.1
		c0-5.1,3.3-7.6,9.8-7.6h37.7l0,15.7L293.5,155.2L293.5,155.2z"/>
	<path class="st2" d="M532,103.4h-34c-13.6,0-20.4,6.5-20.4,19.4v26.3c0.1,12.6,6.9,18.9,20.4,19.1h51.3v-13h-48.9
		c-6.1,0-9.2-3.1-9.2-9.6v-5.9h61.2v-20.2C552.3,108.9,545.5,103.5,532,103.4L532,103.4z M538.8,126.6h-47.5v-1
		c0-6.2,3.4-9.3,10.3-9.3H532c4.5,0,6.7,1.6,6.8,4.9L538.8,126.6z"/>
	<path class="st2" d="M622.7,129h-33.7c-4.5,0-6.8-2.2-6.8-6.5c0-4.2,2.2-6.3,6.7-6.4h53.8v-12.7h-53.7c-13.6,0-20.4,5.4-20.4,16.3
		v6.5c0,10.6,6.9,15.9,20.4,15.9h31.7c5.8,0.1,8.7,2.1,8.7,6c-0.2,4.7-3.1,7.1-8.8,7.2h-51.8v12.9h53.6c13.6,0,20.5-5.4,20.7-16.2
		v-6.3C643.1,134.5,636.3,129,622.7,129L622.7,129z"/>
	<path class="st2" d="M710.3,103.4h-33.9c-13.5,0-20.4,6.5-20.5,19.4v28.8c0,10.9,6.8,16.5,20.4,16.6h34
		c13.7-0.1,20.6-5.5,20.6-16.1v-29.3C730.7,109.9,723.8,103.4,710.3,103.4L710.3,103.4z M717.1,150.4c0,3.2-3.1,4.9-9.2,4.9h-26.8
		c-7.9,0-11.8-2.2-11.8-6.6v-24.1c0.1-5.5,3.1-8.2,9-8.3h30.1c5.8,0,8.7,2.8,8.7,8.3L717.1,150.4L717.1,150.4z"/>
	<path class="st2" d="M827.6,103.5h-81.3l0.1,64.7H760v-51.8h21.5c5.7,0,8.6,2.8,8.7,8.1V168h14v-51.7h21.1c6,0,9,2.9,9.1,8.5
		l0.1,43.3h13.7v-45.3C848.1,110,841.3,103.5,827.6,103.5L827.6,103.5z"/>
	<rect x="955.5" y="129.4" class="st2" width="54.3" height="12.9"/>
	<path class="st2" d="M917.1,103.4h-34c-13.6,0-20.4,6.5-20.4,19.4v26.3c0.1,12.6,6.9,18.9,20.4,19.1h51.3v-13h-48.9
		c-6.1,0-9.2-3.1-9.2-9.6v-5.9h61.2v-20.2C937.3,108.9,930.5,103.5,917.1,103.4L917.1,103.4z M923.8,126.6h-47.5v-1
		c0-6.2,3.4-9.3,10.3-9.3h30.4c4.5,0,6.7,1.6,6.8,4.9L923.8,126.6z"/>
	<path class="st2" d="M1137,103.4h-33.9c-13.5,0-20.4,6.5-20.5,19.4v28.8c0,10.9,6.8,16.5,20.4,16.6h34c13.7-0.1,20.6-5.5,20.6-16.1
		v-29.3C1157.4,109.9,1150.6,103.4,1137,103.4L1137,103.4z M1143.9,150.4c0,3.2-3.1,4.9-9.2,4.9h-26.8c-7.9,0-11.8-2.2-11.8-6.6
		v-24.1c0.1-5.5,3.1-8.2,9-8.3h30.1c5.8,0,8.7,2.8,8.7,8.3L1143.9,150.4L1143.9,150.4z"/>
	<rect x="1170.8" y="103.7" class="st2" width="16.6" height="64.6"/>
	<g>
		<rect x="1040.5" y="104" class="st2" width="16.6" height="64.6"/>
		<rect x="1022.7" y="104.1" class="st2" width="51.4" height="12.2"/>
	</g>
	<g>
		<rect x="1213.6" y="103.5" class="st2" width="16.6" height="64.6"/>
		<rect x="1195.9" y="103.5" class="st2" width="51.4" height="12.2"/>
	</g>
</g>
</svg>
